<?xml version="1.0" encoding="UTF-8" standalone="no"?>
<svg
   xmlns:dc="http://purl.org/dc/elements/1.1/"
   xmlns:cc="http://creativecommons.org/ns#"
   xmlns:rdf="http://www.w3.org/1999/02/22-rdf-syntax-ns#"
   xmlns:svg="http://www.w3.org/2000/svg"
   xmlns="http://www.w3.org/2000/svg"
   version="1.1"
   id="svg833"
   xml:space="preserve"
   width="600"
   height="600"
   viewBox="0 0 600 600"><metadata
     id="metadata839"><rdf:RDF><cc:Work
         rdf:about=""><dc:format>image/svg+xml</dc:format><dc:type
           rdf:resource="http://purl.org/dc/dcmitype/StillImage" /><dc:title></dc:title></cc:Work></rdf:RDF></metadata><defs
     id="defs837" /><g
     id="g841"
     transform="matrix(1.3333333,0,0,-1.3333333,-470.68036,831.49258)"><g
       id="g2167"
       transform="matrix(7.0423749,0,0,7.042408,-2133.0206,-3768.1628)"
       style="stroke-width:0.141998"><path
         d="m 377.6421,602.5244 -5.97,5.819 c -0.037,0.037 -0.087,0.085 -0.05,0.201 0.038,0.115 0.107,0.125 0.158,0.132 l 8.986,1.306 4.018,8.144 c 0.023,0.045 0.054,0.108 0.175,0.108 0.122,0 0.152,-0.063 0.175,-0.109 l 3.665,-7.424 3.538,4.999 -2.374,4.808 c -0.947,1.919 -2.864,3.111 -5.004,3.111 -2.139,0 -4.057,-1.192 -5.004,-3.11 l -2.766,-5.604 -6.184,-0.899 c -2.117,-0.308 -3.843,-1.763 -4.504,-3.798 -0.662,-2.035 -0.121,-4.227 1.411,-5.721 l 3.87,-3.772 z"
         style="fill:#e95d0f;fill-opacity:1;fill-rule:nonzero;stroke:none;stroke-width:0.141998"
         id="path957" /><path
         d="m 403.4182,610.2085 c -0.247,0.759 -0.642,1.438 -1.151,2.006 -0.854,0.955 -2.027,1.599 -3.354,1.792 l -5.455,0.793 -3.492,-4.934 8.173,-1.189 c 0.051,-0.008 0.12,-0.017 0.158,-0.132 0.037,-0.116 -0.013,-0.164 -0.05,-0.2 l -0.738,-0.719 -5.764,-5.619 1.535,-8.95 c 0.013,-0.078 0,-0.11 -0.032,-0.149 -0.042,-0.049 -0.11,-0.085 -0.16,-0.085 -0.009,0 -0.036,0 -0.091,0.028 l -1.252,0.658 6.177,-3.277 c 0.647,1.117 0.889,2.434 0.665,3.734 l -1.056,6.16 4.475,4.363 c 1.532,1.493 2.073,3.685 1.412,5.72"
         style="fill:#97bf0d;fill-opacity:1;fill-rule:nonzero;stroke:none;stroke-width:0.141998"
         id="path961" /><path
         d="m 391.7448,593.5088 -6.785,3.567 -8.038,-4.225 c -0.01,-0.006 -0.018,-0.009 -0.026,-0.012 -0.037,-0.016 -0.058,-0.017 -0.065,-0.017 -0.051,0 -0.118,0.037 -0.16,0.086 -0.032,0.038 -0.045,0.07 -0.032,0.149 l 1.387,8.084 -5.769,-1.781 -0.925,-5.394 c -0.222,-1.29 0.015,-2.596 0.649,-3.707 0.165,-0.288 0.355,-0.564 0.573,-0.822 1.071,-1.272 2.63,-2 4.277,-2 0.906,0 1.78,0.217 2.597,0.647 l 5.532,2.909 5.531,-2.909 c 0.817,-0.43 1.691,-0.648 2.598,-0.647 1.646,0 3.205,0.728 4.276,2 0.211,0.25 0.397,0.517 0.558,0.795 z"
         style="fill:#6a408f;fill-opacity:1;fill-rule:nonzero;stroke:none;stroke-width:0.141998"
         id="path965" /></g><g
       id="g2162"
       transform="matrix(7.0423749,0,0,7.042408,-2133.0206,-3768.1628)"
       style="stroke-width:0.141998"><g
         id="g2091"
         style="stroke-width:0.141998"><path
           d="m 353.0103,575.6318 v 3.471 c 0,0.696 0.418,1.312 1.065,1.567 0.201,0.079 0.41,0.119 0.623,0.119 0.461,0 0.908,-0.195 1.226,-0.535 l 1.197,-1.28 1.204,1.262 c 0.318,0.343 0.766,0.54 1.229,0.54 0.212,0 0.42,-0.041 0.62,-0.119 0.649,-0.255 1.068,-0.871 1.068,-1.567 v -3.755 h -1.16 v 3.755 c 0,0.321 -0.232,0.448 -0.332,0.488 -0.045,0.017 -0.118,0.038 -0.202,0.038 -0.141,0 -0.27,-0.059 -0.374,-0.17 l -2.05,-2.207 -2.047,2.223 c -0.104,0.11 -0.232,0.168 -0.373,0.168 -0.085,0 -0.157,-0.021 -0.203,-0.04 -0.099,-0.039 -0.331,-0.166 -0.331,-0.487 v -3.863 z"
           style="fill:#004494;fill-opacity:1;fill-rule:nonzero;stroke:none;stroke-width:0.141998"
           id="path969" /><path
           d="m 364.7849,580.5151 c -1.469,0 -2.664,-1.203 -2.664,-2.682 0,-1.449 1.195,-2.629 2.664,-2.629 1.455,0 2.638,1.207 2.638,2.689 0,1.421 -1.208,2.622 -2.638,2.622 m 1.582,-2.622 c 0,-0.93 -0.695,-1.658 -1.582,-1.658 -0.886,0 -1.607,0.717 -1.607,1.598 0,0.926 0.706,1.651 1.607,1.651 0.395,0 0.796,-0.166 1.101,-0.454 0.328,-0.313 0.481,-0.674 0.481,-1.137"
           style="fill:#004494;fill-opacity:1;fill-rule:nonzero;stroke:none;stroke-width:0.141998"
           id="path973" /><path
           d="m 370.5886,580.4395 c -0.482,0 -1.017,-0.243 -1.316,-0.559 v 0.456 h -1.023 v -5.096 h 1.057 v 2.473 l 10e-4,0.076 c 0.007,0.349 -0.005,0.84 0.189,1.1 0.209,0.294 0.636,0.508 1.017,0.508 0.424,0 0.773,-0.175 1.005,-0.498 0.195,-0.271 0.234,-0.579 0.234,-0.987 v -2.672 h 1.057 v 2.672 c 0,0.644 -0.081,1.174 -0.477,1.673 -0.451,0.542 -1.038,0.854 -1.744,0.854"
           style="fill:#004494;fill-opacity:1;fill-rule:nonzero;stroke:none;stroke-width:0.141998"
           id="path977" /><path
           d="m 375.2686,581.9771 h -1.057 v -1.641 h -0.974 v -0.996 h 0.974 v -4.1 h 1.057 v 4.1 h 1.085 v 0.996 h -1.085 z"
           style="fill:#004494;fill-opacity:1;fill-rule:nonzero;stroke:none;stroke-width:0.141998"
           id="path981" /><path
           d="m 379.5997,580.481 c -0.612,0 -1.173,-0.208 -1.623,-0.554 v 0.436 h -1.059 v -6.369 l 1.059,-0.385 v 2.086 c 0.45,-0.346 1.011,-0.554 1.623,-0.554 1.475,0 2.67,1.196 2.67,2.671 0,1.474 -1.195,2.669 -2.67,2.669 m -0.052,-4.297 c -0.449,0 -0.868,0.18 -1.182,0.509 -0.3,0.301 -0.434,0.658 -0.434,1.158 0,0.887 0.729,1.582 1.659,1.582 0.896,0 1.624,-0.732 1.624,-1.633 0,-0.921 -0.717,-1.616 -1.667,-1.616"
           style="fill:#004494;fill-opacity:1;fill-rule:nonzero;stroke:none;stroke-width:0.141998"
           id="path993" /><path
           d="m 389.2485,575.2402 h 1.057 v 6.737 l -1.057,-0.433 z"
           style="fill:#004494;fill-opacity:1;fill-rule:nonzero;stroke:none;stroke-width:0.141998"
           id="path997" /><path
           d="m 391.4561,575.2402 h 1.057 v 6.737 l -1.057,-0.433 z"
           style="fill:#004494;fill-opacity:1;fill-rule:nonzero;stroke:none;stroke-width:0.141998"
           id="path1001" /><path
           d="m 393.668,580.945 h 1.057 v 1.032 h -1.057 z"
           style="fill:#004a98;fill-opacity:1;fill-rule:nonzero;stroke:none;stroke-width:0.141998"
           id="path1003" /><path
           d="m 393.668,575.24 h 1.057 v 5.096 h -1.057 z"
           style="fill:#004494;fill-opacity:1;fill-rule:nonzero;stroke:none;stroke-width:0.141998"
           id="path1005" /><path
           d="m 404.6747,580.4111 c -0.113,0.015 -0.229,0.021 -0.347,0.021 -0.499,0 -1.13,-0.152 -1.615,-0.564 v 0.461 h -1.058 v -5.089 h 1.058 v 0.452 2.127 c 0,0.998 0.503,1.538 1.457,1.579 z"
           style="fill:#004494;fill-opacity:1;fill-rule:nonzero;stroke:none;stroke-width:0.141998"
           id="path1017" /><path
           d="m 399.4035,576.7949 c -0.297,-0.344 -0.761,-0.562 -1.262,-0.562 -0.7,0 -1.368,0.529 -1.518,1.19 h 4.205 l -0.006,0.218 c -0.018,0.715 -0.126,1.309 -0.595,1.89 -0.513,0.624 -1.257,0.983 -2.043,0.983 -1.484,0 -2.646,-1.167 -2.646,-2.657 0,-1.488 1.17,-2.654 2.663,-2.654 0.838,0 1.652,0.452 2.14,1.136 z m -1.21,2.688 c 0.66,0 1.269,-0.434 1.505,-1.063 h -3.04 c 0.228,0.629 0.849,1.063 1.535,1.063"
           style="fill:#004494;fill-opacity:1;fill-rule:nonzero;stroke:none;stroke-width:0.141998"
           id="path1021" /><path
           d="m 386.9955,576.7949 c -0.296,-0.344 -0.761,-0.562 -1.262,-0.562 -0.7,0 -1.368,0.529 -1.518,1.19 h 4.205 l -0.006,0.218 c -0.018,0.715 -0.125,1.309 -0.595,1.89 -0.513,0.624 -1.257,0.983 -2.043,0.983 -1.484,0 -2.647,-1.167 -2.647,-2.657 0,-1.488 1.17,-2.654 2.664,-2.654 0.838,0 1.652,0.452 2.14,1.136 z m -1.21,2.688 c 0.66,0 1.269,-0.434 1.505,-1.063 h -3.04 c 0.228,0.629 0.849,1.063 1.535,1.063"
           style="fill:#004494;fill-opacity:1;fill-rule:nonzero;stroke:none;stroke-width:0.141998"
           id="path1025" /></g><g
         id="g2120"
         style="stroke-width:0.141998"><path
           d="m 361.6653,561.6758 v 3.472 c 0,0.696 0.418,1.311 1.066,1.567 0.2,0.078 0.409,0.119 0.622,0.119 0.461,0 0.908,-0.196 1.226,-0.536 l 1.197,-1.28 1.204,1.262 c 0.318,0.343 0.767,0.54 1.229,0.54 0.212,0 0.42,-0.04 0.62,-0.119 0.649,-0.255 1.069,-0.87 1.069,-1.567 v -3.755 h -1.161 v 3.755 c 0,0.321 -0.232,0.449 -0.332,0.488 -0.045,0.018 -0.117,0.038 -0.202,0.038 -0.141,0 -0.27,-0.059 -0.374,-0.17 l -2.05,-2.207 -2.047,2.223 c -0.103,0.11 -0.232,0.169 -0.372,0.169 -0.086,0 -0.158,-0.021 -0.204,-0.041 -0.099,-0.038 -0.331,-0.165 -0.331,-0.486 v -3.864 z"
           style="fill:#004494;fill-opacity:1;fill-rule:nonzero;stroke:none;stroke-width:0.141998"
           id="path1029" /><path
           d="m 401.3193,561.3809 h 1.057 v 6.737 l -1.057,-0.433 z"
           style="fill:#004494;fill-opacity:1;fill-rule:nonzero;stroke:none;stroke-width:0.141998"
           id="path1033" /><path
           d="m 383.3152,566.5542 c -0.113,0.015 -0.229,0.021 -0.347,0.021 -0.499,0 -1.13,-0.151 -1.616,-0.564 v 0.462 h -1.057 v -5.09 h 1.057 v 0.452 2.127 c 0,0.998 0.504,1.538 1.458,1.579 z"
           style="fill:#004494;fill-opacity:1;fill-rule:nonzero;stroke:none;stroke-width:0.141998"
           id="path1045" /><path
           d="m 378.3892,568.1128 h -1.057 v -1.64 h -0.973 v -0.997 h 0.973 v -4.1 h 1.057 v 4.1 h 1.085 v 0.997 h -1.085 z"
           style="fill:#004494;fill-opacity:1;fill-rule:nonzero;stroke:none;stroke-width:0.141998"
           id="path1049" /><path
           d="m 385.7774,566.5757 c -1.469,0 -2.664,-1.203 -2.664,-2.681 0,-1.45 1.195,-2.63 2.664,-2.63 1.455,0 2.638,1.206 2.638,2.689 0,1.421 -1.208,2.622 -2.638,2.622 m 0,-1.031 c 0.395,0 0.796,-0.166 1.101,-0.454 0.328,-0.313 0.481,-0.674 0.481,-1.137 0,-0.93 -0.695,-1.658 -1.582,-1.658 -0.886,0 -1.607,0.717 -1.607,1.599 0,0.925 0.706,1.65 1.607,1.65"
           style="fill:#004494;fill-opacity:1;fill-rule:nonzero;stroke:none;stroke-width:0.141998"
           id="path1061" /><path
           d="m 391.9222,566.5918 c -0.612,0 -1.173,-0.208 -1.623,-0.553 v 0.435 h -1.059 v -6.368 l 1.059,-0.385 v 2.085 c 0.45,-0.345 1.011,-0.553 1.623,-0.553 1.475,0 2.67,1.195 2.67,2.67 0,1.474 -1.195,2.669 -2.67,2.669 m -0.052,-4.296 c -0.449,0 -0.868,0.18 -1.182,0.509 -0.3,0.3 -0.434,0.658 -0.434,1.157 0,0.887 0.729,1.582 1.659,1.582 0.895,0 1.624,-0.733 1.624,-1.633 0,-0.921 -0.717,-1.615 -1.667,-1.615"
           style="fill:#004494;fill-opacity:1;fill-rule:nonzero;stroke:none;stroke-width:0.141998"
           id="path1065" /><path
           d="m 397.8869,566.5757 c -1.469,0 -2.664,-1.203 -2.664,-2.681 0,-1.45 1.195,-2.63 2.664,-2.63 1.455,0 2.638,1.206 2.638,2.689 0,1.421 -1.208,2.622 -2.638,2.622 m 0,-1.031 c 0.395,0 0.796,-0.166 1.101,-0.454 0.328,-0.314 0.481,-0.674 0.481,-1.137 0,-0.93 -0.695,-1.658 -1.582,-1.658 -0.886,0 -1.607,0.717 -1.607,1.599 0,0.925 0.706,1.65 1.607,1.65"
           style="fill:#004494;fill-opacity:1;fill-rule:nonzero;stroke:none;stroke-width:0.141998"
           id="path1069" /><path
           d="m 374.6199,567.9912 -0.414,0.687 -1.83,-1.107 0.405,-0.666 z"
           style="fill:#004494;fill-opacity:1;fill-rule:nonzero;stroke:none;stroke-width:0.141998"
           id="path1073" /><path
           d="m 374.6569,562.793 c -0.296,-0.344 -0.761,-0.562 -1.262,-0.562 -0.7,0 -1.368,0.529 -1.518,1.19 h 4.205 l -0.006,0.218 c -0.017,0.715 -0.125,1.31 -0.595,1.889 -0.513,0.625 -1.257,0.984 -2.043,0.984 -1.484,0 -2.647,-1.167 -2.647,-2.657 0,-1.489 1.17,-2.654 2.664,-2.654 0.838,0 1.652,0.452 2.14,1.135 z m -1.21,2.688 c 0.66,0 1.269,-0.434 1.505,-1.063 h -3.04 c 0.228,0.629 0.85,1.063 1.535,1.063"
           style="fill:#004494;fill-opacity:1;fill-rule:nonzero;stroke:none;stroke-width:0.141998"
           id="path1085" /><path
           d="m 407.0695,562.793 c -0.296,-0.344 -0.761,-0.562 -1.262,-0.562 -0.7,0 -1.368,0.529 -1.518,1.19 h 4.205 l -0.006,0.218 c -0.017,0.715 -0.125,1.31 -0.595,1.889 -0.513,0.625 -1.257,0.984 -2.043,0.984 -1.484,0 -2.647,-1.167 -2.647,-2.657 0,-1.489 1.17,-2.654 2.664,-2.654 0.838,0 1.652,0.452 2.14,1.135 z m -1.21,2.688 c 0.66,0 1.269,-0.434 1.505,-1.063 h -3.04 c 0.228,0.629 0.85,1.063 1.535,1.063"
           style="fill:#004494;fill-opacity:1;fill-rule:nonzero;stroke:none;stroke-width:0.141998"
           id="path1089" /></g><g
         id="g2108"
         style="stroke-width:0.141998"><path
           d="m 378.8499,569.3711 v 2.116 c 0,0.424 0.255,0.798 0.649,0.953 0.122,0.048 0.25,0.073 0.379,0.073 0.281,0 0.554,-0.119 0.747,-0.326 l 0.73,-0.78 0.733,0.769 c 0.194,0.209 0.467,0.329 0.749,0.329 0.129,0 0.256,-0.024 0.378,-0.072 0.395,-0.156 0.651,-0.53 0.651,-0.955 v -2.288 h -0.707 v 2.288 c 0,0.196 -0.142,0.273 -0.203,0.297 -0.027,0.011 -0.071,0.024 -0.123,0.024 -0.086,0 -0.164,-0.036 -0.227,-0.104 l -1.25,-1.345 -1.247,1.354 c -0.063,0.068 -0.141,0.103 -0.227,0.103 -0.052,0 -0.096,-0.013 -0.123,-0.024 -0.061,-0.024 -0.202,-0.1 -0.202,-0.296 v -2.355 z"
           style="fill:#004494;fill-opacity:1;fill-rule:nonzero;stroke:none;stroke-width:0.141998"
           id="path1093" /><path
           d="m 408.2095,572.2998 c -0.293,0 -0.619,-0.148 -0.801,-0.34 v 0.278 h -0.621 v -3.101 h 0.642 v 1.504 l 10e-4,0.047 c 0.004,0.213 -0.003,0.511 0.115,0.669 0.127,0.178 0.387,0.309 0.618,0.309 0.258,0 0.471,-0.106 0.612,-0.303 0.118,-0.165 0.142,-0.352 0.142,-0.6 v -1.626 h 0.643 v 1.626 c 0,0.391 -0.049,0.714 -0.29,1.018 -0.274,0.33 -0.632,0.519 -1.061,0.519"
           style="fill:#004494;fill-opacity:1;fill-rule:nonzero;stroke:none;stroke-width:0.141998"
           id="path1097" /><path
           d="m 392.147,572.615 h 0.643 v 0.628 h -0.643 z"
           style="fill:#004a98;fill-opacity:1;fill-rule:nonzero;stroke:none;stroke-width:0.141998"
           id="path1099" /><path
           d="m 392.147,569.14 h 0.643 v 3.104 h -0.643 z"
           style="fill:#004494;fill-opacity:1;fill-rule:nonzero;stroke:none;stroke-width:0.141998"
           id="path1101" /><path
           d="m 394.4337,573.2407 h -0.626 v -1.003 h -0.596 v -0.59 h 0.596 v -2.508 h 0.626 v 2.508 h 0.664 v 0.59 h -0.664 z"
           style="fill:#004494;fill-opacity:1;fill-rule:nonzero;stroke:none;stroke-width:0.141998"
           id="path1105" /><path
           d="m 389.7488,569.0762 c 0.369,0 0.708,0.125 0.98,0.334 v -0.263 h 0.64 v 3.846 l -0.64,0.232 v -1.259 c -0.272,0.21 -0.611,0.334 -0.98,0.334 -0.891,0 -1.613,-0.721 -1.613,-1.612 0,-0.891 0.722,-1.612 1.613,-1.612 m 0.031,2.595 c 0.271,0 0.525,-0.109 0.714,-0.308 0.181,-0.182 0.262,-0.397 0.262,-0.699 0,-0.536 -0.44,-0.956 -1.002,-0.956 -0.541,0 -0.98,0.443 -0.98,0.987 0,0.556 0.432,0.976 1.006,0.976"
           style="fill:#004494;fill-opacity:1;fill-rule:nonzero;stroke:none;stroke-width:0.141998"
           id="path1117" /><path
           d="m 386.8133,573.2012 -0.252,0.417 -1.112,-0.671 0.246,-0.407 z"
           style="fill:#004494;fill-opacity:1;fill-rule:nonzero;stroke:none;stroke-width:0.141998"
           id="path1121" /><path
           d="m 386.8357,570.042 c -0.18,-0.209 -0.463,-0.341 -0.767,-0.341 -0.425,0 -0.831,0.321 -0.922,0.723 h 2.555 l -0.003,0.132 c -0.011,0.435 -0.077,0.797 -0.362,1.149 -0.312,0.379 -0.764,0.597 -1.242,0.597 -0.902,0 -1.608,-0.709 -1.608,-1.614 0,-0.905 0.711,-1.614 1.619,-1.614 0.509,0 1.004,0.276 1.3,0.691 z m -0.735,1.634 c 0.401,0 0.771,-0.264 0.914,-0.646 h -1.847 c 0.139,0.382 0.516,0.646 0.933,0.646"
           style="fill:#004494;fill-opacity:1;fill-rule:nonzero;stroke:none;stroke-width:0.141998"
           id="path1133" /><path
           d="m 397.5751,570.0464 c -0.18,-0.209 -0.462,-0.341 -0.766,-0.341 -0.424,0 -0.83,0.32 -0.921,0.722 h 2.552 l -0.004,0.132 c -0.011,0.433 -0.076,0.795 -0.361,1.146 -0.311,0.38 -0.763,0.597 -1.239,0.597 -0.901,0 -1.606,-0.708 -1.606,-1.611 0,-0.904 0.71,-1.611 1.616,-1.611 0.508,0 1.002,0.274 1.298,0.689 z m -0.734,1.63 c 0.4,0 0.77,-0.262 0.913,-0.645 h -1.845 c 0.139,0.383 0.516,0.645 0.932,0.645"
           style="fill:#004494;fill-opacity:1;fill-rule:nonzero;stroke:none;stroke-width:0.141998"
           id="path1137" /><path
           d="m 405.528,571.9224 c -0.245,0.239 -0.606,0.377 -0.998,0.377 -0.474,0 -0.88,-0.17 -1.205,-0.506 -0.287,-0.3 -0.446,-0.686 -0.446,-1.085 0,-0.448 0.183,-0.848 0.312,-0.989 0.36,-0.411 0.852,-0.647 1.349,-0.647 0.396,0 0.759,0.144 0.988,0.385 v -0.317 h 0.61 v 3.097 h -0.61 z m -0.988,-2.239 c -0.561,0 -1.034,0.453 -1.034,0.992 0,0.559 0.459,1.015 1.024,1.015 0.56,0 0.998,-0.448 0.998,-1.02 0,-0.526 -0.462,-0.987 -0.988,-0.987"
           style="fill:#004494;fill-opacity:1;fill-rule:nonzero;stroke:none;stroke-width:0.141998"
           id="path1141" /><path
           d="m 402.9951,572.3003 c -0.069,0.01 -0.14,0.014 -0.212,0.014 -0.305,0 -0.69,-0.094 -0.987,-0.345 v 0.282 h -0.646 v -3.11 h 0.646 v 0.277 1.299 c 0,0.609 0.308,0.939 0.891,0.965 z"
           style="fill:#004494;fill-opacity:1;fill-rule:nonzero;stroke:none;stroke-width:0.141998"
           id="path1145" /><path
           d="m 400.7874,572.3003 c -0.069,0.01 -0.14,0.014 -0.212,0.014 -0.305,0 -0.69,-0.094 -0.987,-0.345 v 0.282 h -0.646 v -3.11 h 0.646 v 0.277 1.299 c 0,0.609 0.307,0.939 0.89,0.965 z"
           style="fill:#004494;fill-opacity:1;fill-rule:nonzero;stroke:none;stroke-width:0.141998"
           id="path1149" /><path
           d="m 412.3893,573.2007 -0.251,0.416 -1.111,-0.671 0.246,-0.405 z"
           style="fill:#004494;fill-opacity:1;fill-rule:nonzero;stroke:none;stroke-width:0.141998"
           id="path1153" /><path
           d="m 412.4117,570.0464 c -0.18,-0.209 -0.462,-0.341 -0.766,-0.341 -0.424,0 -0.83,0.32 -0.921,0.722 h 2.552 l -0.004,0.132 c -0.011,0.433 -0.076,0.795 -0.361,1.146 -0.311,0.38 -0.763,0.597 -1.24,0.597 -0.9,0 -1.605,-0.708 -1.605,-1.611 0,-0.904 0.71,-1.611 1.616,-1.611 0.508,0 1.002,0.274 1.298,0.689 z m -0.734,1.63 c 0.4,0 0.77,-0.262 0.913,-0.645 h -1.845 c 0.139,0.383 0.516,0.645 0.932,0.645"
           style="fill:#004494;fill-opacity:1;fill-rule:nonzero;stroke:none;stroke-width:0.141998"
           id="path1165" /><path
           d="m 416.0442,570.0464 c -0.18,-0.209 -0.462,-0.341 -0.766,-0.341 -0.424,0 -0.83,0.32 -0.921,0.722 h 2.552 l -0.004,0.132 c -0.011,0.433 -0.076,0.795 -0.361,1.146 -0.311,0.38 -0.763,0.597 -1.24,0.597 -0.9,0 -1.605,-0.708 -1.605,-1.611 0,-0.904 0.71,-1.611 1.616,-1.611 0.508,0 1.002,0.274 1.298,0.689 z m -0.734,1.63 c 0.4,0 0.77,-0.262 0.913,-0.645 h -1.845 c 0.139,0.383 0.516,0.645 0.932,0.645"
           style="fill:#004494;fill-opacity:1;fill-rule:nonzero;stroke:none;stroke-width:0.141998"
           id="path1169" /></g></g></g></svg>
