<?xml version="1.0" standalone="no"?>
<svg xmlns="http://www.w3.org/2000/svg" viewBox="0 0 98.03999999999999 22.536" width="98.03999999999999" height="22.536"><path fill="#FAC86F" fill-rule="nonzero" d="M5.88 18.67Q3.70 18.67 2.20 17.46Q0.70 16.25 0 14.21L0 14.21L2.98 12.82L3.26 13.30Q3.96 14.50 4.60 15.17Q5.23 15.84 6.19 15.84L6.19 15.84Q6.82 15.84 7.31 15.24Q7.80 14.64 7.80 13.92L7.80 13.92Q7.80 13.25 7.46 12.70Q7.13 12.14 6.60 11.81L6.60 11.81L3.46 9.94Q2.09 9.17 1.27 7.99Q0.46 6.82 0.46 5.35L0.46 5.35Q0.46 3.79 1.19 2.57Q1.92 1.34 3.18 0.67Q4.44 0 6.02 0L6.02 0Q7.87 0 9.17 0.91Q10.46 1.82 11.09 3.62L11.09 3.62L8.11 4.97Q8.02 4.78 7.70 4.10Q7.39 3.43 6.95 3.13Q6.50 2.83 5.86 2.83L5.86 2.83Q5.06 2.83 4.64 3.34Q4.22 3.84 4.22 4.63L4.22 4.63Q4.22 5.21 4.55 5.68Q4.87 6.14 5.33 6.41L5.33 6.41L8.23 8.11Q11.45 9.94 11.62 12.91L11.62 12.91Q11.62 14.62 10.86 15.92Q10.10 17.23 8.80 17.95Q7.49 18.67 5.88 18.67L5.88 18.67ZM16.61 18.65Q15.29 18.65 14.45 17.72Q13.61 16.80 13.61 15.24L13.61 15.24L13.61 5.11L16.97 4.82L16.97 13.87Q16.97 14.83 17.28 15.25Q17.59 15.67 18.24 15.67L18.24 15.67Q18.74 15.67 19.32 15.42Q19.90 15.17 20.35 14.62L20.35 14.62L20.35 5.11L23.74 4.82L23.74 18.19L20.35 18.48L20.35 16.75Q19.51 17.71 18.52 18.18Q17.52 18.65 16.61 18.65L16.61 18.65ZM26.64 18.48L26.64 5.11L30 4.82L30 6.55Q31.03 5.64 32.03 5.15Q33.02 4.66 33.86 4.66L33.86 4.66Q35.14 4.66 35.94 5.58Q36.74 6.50 36.74 8.06L36.74 8.06L36.74 18.19L33.38 18.48L33.38 9.34Q33.38 7.54 32.16 7.54L32.16 7.54Q31.75 7.54 31.26 7.78Q30.77 8.02 30 8.47L30 8.47L30 18.19L26.64 18.48ZM39.58 22.54L39.58 5.11L42.94 4.82L42.94 6.14Q43.73 5.35 44.41 5.00Q45.10 4.66 46.01 4.66L46.01 4.66Q47.26 4.66 47.99 5.35Q48.72 6.05 49.04 7.52Q49.37 9.00 49.37 11.47L49.37 11.47Q49.37 14.86 48.59 16.75Q47.81 18.65 45.60 18.65L45.60 18.65Q44.59 18.65 43.99 18.26Q43.39 17.88 42.94 17.18L42.94 17.18L42.94 21.86L39.58 22.54ZM44.40 16.08Q45.19 16.08 45.59 15.14Q45.98 14.21 45.98 11.62L45.98 11.62Q45.98 9.14 45.59 8.11Q45.19 7.08 44.38 7.08L44.38 7.08Q43.54 7.08 42.94 8.02L42.94 8.02L42.94 15.00Q43.42 16.08 44.40 16.08L44.40 16.08ZM56.09 18.65Q53.66 18.65 52.36 16.73Q51.05 14.81 51.05 11.62L51.05 11.62Q51.05 8.45 52.34 6.55Q53.64 4.66 56.09 4.66L56.09 4.66Q58.51 4.66 59.84 6.55Q61.18 8.45 61.18 11.62L61.18 11.62Q61.18 14.78 59.84 16.72Q58.51 18.65 56.09 18.65L56.09 18.65ZM56.09 16.15Q57.17 16.15 57.48 14.83Q57.79 13.51 57.79 11.59L57.79 11.59Q57.79 9.67 57.48 8.35Q57.17 7.03 56.09 7.03L56.09 7.03Q55.01 7.03 54.72 8.28Q54.43 9.53 54.43 11.33L54.43 11.33Q54.43 13.54 54.72 14.84Q55.01 16.15 56.09 16.15L56.09 16.15ZM67.94 18.34L65.18 18.34L62.42 5.09L65.86 4.82L67.01 12.48L68.71 5.11L71.52 4.82L72.98 12.38L74.45 5.11L77.18 4.97L74.09 18.34L71.38 18.34L69.84 9.58L67.94 18.34ZM83.16 18.65Q80.76 18.65 79.49 16.74Q78.22 14.83 78.22 11.66L78.22 11.66Q78.22 8.45 79.51 6.55Q80.81 4.66 83.28 4.66L83.28 4.66Q85.63 4.66 86.88 6.55Q88.13 8.45 88.13 11.66L88.13 11.66Q88.13 11.86 88.06 11.94Q87.98 12.02 87.98 12.05L87.98 12.05L81.58 12.05Q81.58 13.61 81.98 14.89Q82.39 16.18 83.23 16.18L83.23 16.18Q84.17 16.18 84.62 15.10Q85.08 14.02 85.10 13.97L85.10 13.97L87.65 14.93Q87.14 16.66 86.04 17.65Q84.94 18.65 83.16 18.65L83.16 18.65ZM81.58 10.10L84.82 10.10Q84.82 8.66 84.43 7.82Q84.05 6.98 83.23 6.98L83.23 6.98Q82.82 6.98 82.44 7.39Q82.06 7.80 81.82 8.52Q81.58 9.24 81.58 10.10L81.58 10.10ZM90.17 18.48L90.17 5.11L93.53 4.82L93.53 7.01Q94.25 5.98 95.32 5.34Q96.38 4.70 98.04 4.70L98.04 4.70L98.04 7.99Q97.18 7.99 95.77 8.29Q94.37 8.59 93.53 9.34L93.53 9.34L93.53 18.19L90.17 18.48Z"></path></svg>