<?xml version="1.0" encoding="UTF-8" standalone="no"?>
<svg
   width="288"
   height="288"
   version="1.1"
   id="svg10"
   sodipodi:docname="logo-icon.svg"
   xmlns:inkscape="http://www.inkscape.org/namespaces/inkscape"
   xmlns:sodipodi="http://sodipodi.sourceforge.net/DTD/sodipodi-0.dtd"
   xmlns="http://www.w3.org/2000/svg"
   xmlns:svg="http://www.w3.org/2000/svg">
  <defs
     id="defs14" />
  <sodipodi:namedview
     id="namedview12"
     pagecolor="#ffffff"
     bordercolor="#666666"
     borderopacity="1.0"
     inkscape:pageshadow="2"
     inkscape:pageopacity="0.0"
     inkscape:pagecheckerboard="0" />
  <svg
     width="288"
     height="288"
     enable-background="new 0 0 32 32"
     viewBox="0 0 32 32"
     version="1.1"
     id="svg8">
    <path
       fill="#fac86f"
       d="M16,8c-4.4,0-8,3.6-8,8s3.6,8,8,8s8-3.6,8-8S20.4,8,16,8z"
       class="colorDEE451 svgShape"
       id="path2" />
    <path
       fill="#fff"
       d="M18.8,12.4c-0.3-0.4-0.9-0.6-1.4-0.2l-3.5,2.5c0,0,0,0.1-0.1,0.1c-0.1,0-0.1,0.1-0.1,0.2  c0,0.1-0.1,0.1-0.1,0.2c0,0,0,0.1-0.1,0.1c0,0,0,0.1,0,0.1c0,0.1,0,0.1,0,0.2c0,0.1,0,0.1,0,0.2c0,0.1,0,0.1,0,0.2  c0,0.1,0,0.1,0.1,0.2c0,0,0,0,0,0.1c0,0,0,0,0.1,0.1c0.1,0.1,0.1,0.1,0.2,0.2c0,0,0.1,0.1,0.1,0.1c0,0,0,0,0.1,0l1.1,0.4l-1.9,1.4  c-0.4,0.3-0.6,0.9-0.2,1.4c0.2,0.3,0.5,0.4,0.8,0.4c0.2,0,0.4-0.1,0.6-0.2l3.5-2.5c0,0,0,0,0,0l0,0c0,0,0,0,0,0  c0.1-0.1,0.2-0.2,0.2-0.3c0,0,0-0.1,0.1-0.1c0,0,0.1-0.1,0.1-0.1c0,0,0,0,0-0.1c0-0.1,0-0.1,0-0.2c0-0.1,0-0.1,0-0.2  c0-0.1,0-0.1,0-0.2c0-0.1,0-0.1-0.1-0.2c0,0,0,0,0-0.1c0,0-0.1,0-0.1-0.1c0-0.1-0.1-0.1-0.1-0.1c-0.1,0-0.1-0.1-0.2-0.1  c0,0-0.1,0-0.1-0.1l-1.1-0.4l1.9-1.4C19,13.5,19.1,12.9,18.8,12.4z"
       class="colorFFF svgShape"
       id="path4" />
    <path
       fill="#fac86f"
       d="M16 7c-.6 0-1-.4-1-1V3c0-.6.4-1 1-1s1 .4 1 1v3C17 6.6 16.6 7 16 7zM6 17H3c-.6 0-1-.4-1-1s.4-1 1-1h3c.6 0 1 .4 1 1S6.6 17 6 17zM16 30c-.6 0-1-.4-1-1v-3c0-.6.4-1 1-1s1 .4 1 1v3C17 29.6 16.6 30 16 30zM29 17h-3c-.6 0-1-.4-1-1s.4-1 1-1h3c.6 0 1 .4 1 1S29.6 17 29 17zM8.9 9.9c-.3 0-.5-.1-.7-.3L6.8 8.2c-.4-.4-.4-1 0-1.4s1-.4 1.4 0l1.4 1.4c.4.4.4 1 0 1.4C9.4 9.8 9.2 9.9 8.9 9.9zM7.5 25.5c-.3 0-.5-.1-.7-.3-.4-.4-.4-1 0-1.4l1.4-1.4c.4-.4 1-.4 1.4 0s.4 1 0 1.4l-1.4 1.4C8 25.4 7.8 25.5 7.5 25.5zM24.5 25.5c-.3 0-.5-.1-.7-.3l-1.4-1.4c-.4-.4-.4-1 0-1.4s1-.4 1.4 0l1.4 1.4c.4.4.4 1 0 1.4C25 25.4 24.7 25.5 24.5 25.5zM23.1 9.9c-.3 0-.5-.1-.7-.3-.4-.4-.4-1 0-1.4l1.4-1.4c.4-.4 1-.4 1.4 0s.4 1 0 1.4l-1.4 1.4C23.6 9.8 23.3 9.9 23.1 9.9z"
       class="colorDEE451 svgShape"
       id="path6" />
  </svg>
</svg>
