<?xml version="1.0" standalone="no"?>
<!DOCTYPE svg PUBLIC "-//W3C//DTD SVG 20010904//EN"
 "http://www.w3.org/TR/2001/REC-SVG-20010904/DTD/svg10.dtd">
<svg version="1.0" xmlns="http://www.w3.org/2000/svg"
 width="700.000000pt" height="700.000000pt" viewBox="0 0 700.000000 700.000000"
 preserveAspectRatio="xMidYMid meet">
<metadata>
Created by potrace 1.14, written by Peter Selinger 2001-2017
</metadata>
<g transform="translate(0.000000,700.000000) scale(0.100000,-0.100000)"
fill="#000000" stroke="none">
<path d="M3410 6547 c-49 -23 -77 -48 -101 -89 l-24 -43 -1 -380 c-2 -415 1
-448 53 -499 41 -42 80 -58 150 -64 109 -8 194 50 222 152 6 23 9 181 8 415
l-2 376 -27 46 c-38 65 -105 99 -189 98 -35 0 -75 -6 -89 -12z"/>
<path d="M1577 5567 c-126 -40 -193 -201 -128 -308 31 -51 371 -387 410 -405
46 -22 137 -22 179 0 109 56 156 190 104 292 -24 47 -366 389 -409 409 -45 22
-110 27 -156 12z"/>
<path d="M5290 5567 c-42 -13 -401 -361 -430 -417 -40 -79 -27 -174 33 -240
66 -72 145 -92 233 -59 42 16 81 50 240 211 203 206 215 224 209 311 -8 138
-150 234 -285 194z"/>
<path d="M3349 5245 c-2 -2 -29 -6 -59 -9 -371 -40 -759 -230 -1027 -503 -137
-140 -233 -272 -324 -448 -52 -102 -130 -309 -142 -380 -3 -16 -10 -53 -16
-82 -22 -109 -25 -153 -26 -313 0 -179 6 -242 39 -395 52 -245 193 -530 362
-731 114 -136 229 -239 374 -336 220 -146 464 -241 720 -280 92 -13 397 -17
470 -5 177 29 279 55 415 107 24 9 242 117 270 133 160 95 315 233 470 418 51
60 157 233 203 329 45 94 104 253 116 312 3 13 12 55 20 93 25 116 30 172 30
345 0 181 -4 228 -38 387 -63 297 -244 623 -470 848 -76 75 -190 169 -266 220
-201 133 -432 226 -675 271 -79 14 -436 30 -446 19z"/>
<path d="M577 3705 c-62 -21 -91 -48 -119 -111 -32 -74 -22 -172 24 -235 11
-15 39 -37 61 -50 l42 -24 395 0 c360 0 398 2 433 18 73 35 113 100 116 189 3
64 -24 137 -62 170 -61 54 -54 53 -467 55 -295 1 -394 -2 -423 -12z"/>
<path d="M5603 3702 c-87 -35 -133 -105 -132 -202 1 -68 16 -111 53 -150 62
-67 50 -65 491 -65 430 0 421 -1 482 53 33 28 65 106 65 158 0 88 -36 156
-105 195 l-42 24 -385 2 c-339 1 -390 -1 -427 -15z"/>
<path d="M1905 2160 c-59 -14 -93 -41 -276 -227 -197 -200 -208 -216 -204
-304 5 -84 75 -177 150 -198 47 -13 133 -4 168 18 47 29 379 365 398 403 79
155 -69 348 -236 308z"/>
<path d="M4995 2157 c-132 -44 -196 -188 -135 -306 10 -20 103 -120 207 -223
202 -200 215 -208 305 -202 112 8 196 93 203 204 6 83 -24 126 -218 320 -97
96 -191 182 -210 192 -42 21 -112 28 -152 15z"/>
<path d="M3405 1511 c-48 -22 -79 -50 -102 -94 -16 -29 -18 -69 -18 -432 l0
-400 24 -42 c84 -146 306 -139 389 12 15 27 17 77 17 430 0 363 -2 403 -18
432 -39 72 -110 113 -197 113 -33 0 -71 -8 -95 -19z"/>
</g>
</svg>
